HIERARCHY
ROOT root
{
	OFFSET 0.000000 0.000000 0.000000
	CHANNELS 6 Xposition Yposition Zposition Zrotation Yrotation Xrotation
	JOINT lhip
	{
		OFFSET 0.058581 -0.082280 -0.017664
		CHANNELS 3 Zrotation Yrotation Xrotation
		JOINT lknee
		{
			OFFSET 0.043451 -0.386469 0.008037
			CHANNELS 3 Zrotation Yrotation Xrotation
			JOINT lankle
			{
				OFFSET -0.014790 -0.426874 -0.037428
				CHANNELS 3 Zrotation Yrotation Xrotation
				JOINT ltoe
				{
					OFFSET 0.041054 -0.060286 0.122042
					CHANNELS 3 Zrotation Yrotation Xrotation
					End Site
					{
						OFFSET 0.000000 0.000000 0.000000
					}
				}
			}
		}
	}
	JOINT rhip
	{
		OFFSET -0.060310 -0.090513 -0.013543
		CHANNELS 3 Zrotation Yrotation Xrotation
		JOINT rknee
		{
			OFFSET -0.043257 -0.383688 -0.004843
			CHANNELS 3 Zrotation Yrotation Xrotation
			JOINT rankle
			{
				OFFSET 0.019056 -0.420046 -0.034562
				CHANNELS 3 Zrotation Yrotation Xrotation
				JOINT rtoe
				{
					OFFSET -0.034840 -0.062106 0.130323
					CHANNELS 3 Zrotation Yrotation Xrotation
					End Site
					{
						OFFSET 0.000000 0.000000 0.000000
					}
				}
			}
		}
	}
	JOINT lowerback
	{
		OFFSET 0.004439 0.124404 -0.038385
		CHANNELS 3 Zrotation Yrotation Xrotation
		JOINT upperback
		{
			OFFSET 0.004488 0.137956 0.026820
			CHANNELS 3 Zrotation Yrotation Xrotation
			JOINT chest
			{
				OFFSET -0.002265 0.056032 0.002855
				CHANNELS 3 Zrotation Yrotation Xrotation
				JOINT lowerneck
				{
					OFFSET -0.013390 0.211636 -0.033468
					CHANNELS 3 Zrotation Yrotation Xrotation
					JOINT upperneck
					{
						OFFSET 0.010113 0.088937 0.050410
						CHANNELS 3 Zrotation Yrotation Xrotation
						End Site
						{
							OFFSET 0.000000 0.000000 0.000000
						}
					}
				}
				JOINT lclavicle
				{
					OFFSET 0.071702 0.114000 -0.018898
					CHANNELS 3 Zrotation Yrotation Xrotation
					JOINT lshoulder
					{
						OFFSET 0.122921 0.045205 -0.019046
						CHANNELS 3 Zrotation Yrotation Xrotation
						JOINT lelbow
						{
							OFFSET 0.255332 -0.015649 -0.022946
							CHANNELS 3 Zrotation Yrotation Xrotation
							JOINT lwrist
							{
								OFFSET 0.265709 0.012698 -0.007375
								CHANNELS 3 Zrotation Yrotation Xrotation
								End Site
								{
									OFFSET 0.000000 0.000000 0.000000
								}
							}
						}
					}
				}
				JOINT rclavicle
				{
					OFFSET -0.082954 0.112472 -0.023707
					CHANNELS 3 Zrotation Yrotation Xrotation
					JOINT rshoulder
					{
						OFFSET -0.113228 0.046853 -0.008472
						CHANNELS 3 Zrotation Yrotation Xrotation
						JOINT relbow
						{
							OFFSET -0.260127 -0.014369 -0.031269
							CHANNELS 3 Zrotation Yrotation Xrotation
							JOINT rwrist
							{
								OFFSET -0.269108 0.006794 -0.006027
								CHANNELS 3 Zrotation Yrotation Xrotation
								End Site
								{
									OFFSET 0.000000 0.000000 0.000000
								}
							}
						}
					}
				}
			}
		}
	}
}
MOTION
Frames: 13
Frame Time: 0.033333
-0.177237 -1.892745 0.968259 167.333527 -1.087968 83.650662 4.698337 -2.893942 -6.757933 -4.591204 -12.565000 12.200684 -3.531960 2.584660 -10.989021 0.000000 -0.000000 0.000000 1.122315 1.994060 7.818981 -1.414316 9.940416 14.081081 -2.112706 -0.152723 -28.372465 0.000000 -0.000000 0.000000 1.105857 1.863463 17.678439 1.496681 -2.404481 7.199641 0.975033 -0.713823 1.615672 -2.045539 8.543475 -5.365487 -0.165873 1.997798 1.010676 -26.186909 1.631396 2.137708 -56.075969 0.479348 10.725900 14.336347 -49.430280 4.577052 0.728573 -11.320035 -21.481565 22.121085 3.139844 4.287779 54.018268 3.518687 12.589908 -18.503124 49.143647 1.415430 6.243879 8.189310 -10.066247 
-0.177595 -1.893714 0.968334 167.582333 -1.016332 83.494321 4.744292 -3.066105 -6.672224 -4.622430 -12.706369 12.142521 -3.710342 2.662330 -10.883531 0.000000 -0.000000 0.000000 1.220939 1.829887 7.913470 -1.493176 9.964564 14.112068 -2.249429 -0.162414 -28.296718 0.000000 -0.000000 0.000000 1.275852 1.856690 17.828325 1.489811 -2.500952 7.081302 0.993438 -0.748952 1.629023 -2.035829 8.384884 -5.319103 -0.266173 1.931466 1.141809 -26.206447 1.550871 2.216650 -56.204564 0.500730 10.766381 14.333395 -49.436459 4.757946 0.779168 -11.370348 -21.591691 22.055712 3.173536 4.328593 54.016731 3.377466 12.428095 -18.577111 48.905475 1.466153 6.173308 8.125722 -10.139542 
-0.177894 -1.894554 0.968393 167.782170 -0.941958 83.361314 4.781938 -3.132869 -6.620388 -4.619495 -12.827422 12.136174 -3.773158 2.641086 -10.805106 0.000000 -0.000000 0.000000 1.341832 1.724250 7.990649 -1.558022 10.028310 14.163893 -2.291235 -0.245485 -28.218667 0.000000 -0.000000 0.000000 1.378010 1.840538 17.934761 1.522814 -2.536126 7.010807 1.021796 -0.753390 1.584775 -2.033711 8.232060 -5.308486 -0.317940 1.916701 1.338579 -26.220042 1.499336 2.319594 -56.290058 0.490316 10.754269 14.231139 -49.519356 4.932741 0.755214 -11.375711 -21.644843 21.993927 3.144894 4.395997 53.978613 3.291924 12.226195 -18.596377 48.546347 1.495158 6.239346 8.056324 -10.029017 
-0.178285 -1.895402 0.968445 167.971282 -0.883364 83.260952 4.802680 -3.194394 -6.602448 -4.621302 -12.944471 12.127716 -3.807596 2.621435 -10.718422 0.000000 -0.000000 0.000000 1.400682 1.630899 8.068766 -1.578827 9.991956 14.161267 -2.310252 -0.262484 -28.156149 0.000000 -0.000000 0.000000 1.427732 1.825265 18.017093 1.549963 -2.545701 6.855274 1.053580 -0.726846 1.572933 -2.013510 8.141210 -5.213177 -0.296062 1.890380 1.460376 -26.181685 1.497828 2.392765 -56.355787 0.479097 10.801782 14.092828 -49.680286 5.135547 0.651944 -11.422118 -21.720968 21.967745 3.118561 4.444140 53.913542 3.158725 12.024226 -18.696628 47.915090 1.463542 6.341299 7.970562 -9.818851 
-0.178554 -1.895850 0.968484 168.065033 -0.835056 83.222525 4.830414 -3.227036 -6.609917 -4.625567 -13.013612 12.127875 -3.814776 2.616152 -10.666500 0.000000 -0.000000 0.000000 1.441935 1.587801 8.085532 -1.580862 9.980520 14.163648 -2.332171 -0.264729 -28.109722 0.000000 -0.000000 0.000000 1.471210 1.788528 18.040176 1.555113 -2.541897 6.759904 1.051716 -0.701238 1.572240 -2.005161 8.133949 -5.134528 -0.263626 1.891739 1.479271 -26.147273 1.501687 2.430896 -56.364999 0.472735 10.831060 14.031982 -49.782200 5.232224 0.609319 -11.450866 -21.784367 21.955214 3.123531 4.491798 53.892649 3.083609 11.916786 -18.804756 47.494958 1.394535 6.370296 7.900081 -9.724341 
-0.178801 -1.896292 0.968523 168.085005 -0.800046 83.153207 4.863680 -3.209233 -6.542286 -4.639057 -13.064490 12.070693 -3.818751 2.626339 -10.621672 0.000000 -0.000000 0.000000 1.456323 1.537647 8.115937 -1.574028 9.993463 14.199213 -2.354407 -0.222557 -28.071323 0.000000 -0.000000 0.000000 1.478098 1.800665 18.038156 1.550123 -2.510401 6.725345 1.059426 -0.648456 1.538333 -2.010745 8.127486 -5.028506 -0.207967 1.908003 1.472411 -26.096143 1.467104 2.485362 -56.350723 0.466019 10.843451 14.041889 -49.929024 5.187413 0.525763 -11.386340 -21.889258 21.940732 3.144930 4.574194 53.878023 2.971045 11.747862 -18.981978 46.979345 1.246092 6.464965 7.784370 -9.595682 
-0.179045 -1.896666 0.968521 168.059261 -0.806979 83.106065 4.870664 -3.172059 -6.493416 -4.668893 -13.077249 12.023498 -3.795620 2.637625 -10.605213 0.000000 -0.000000 0.000000 1.409714 1.504126 8.132215 -1.547330 9.997483 14.240844 -2.314462 -0.148796 -28.030704 0.000000 -0.000000 0.000000 1.424659 1.864963 17.982224 1.544680 -2.471476 6.738206 1.079615 -0.611100 1.502121 -2.009757 8.105442 -4.943549 -0.167464 1.927957 1.486188 -26.065689 1.404972 2.541365 -56.314829 0.426503 10.834635 14.137944 -49.976849 5.022505 0.484048 -11.278151 -21.890318 21.928689 3.153490 4.658451 53.851415 2.891718 11.577350 -19.124016 46.514186 1.111699 6.612037 7.693892 -9.466029 
-0.179352 -1.896988 0.968532 168.044057 -0.782335 83.050023 4.898782 -3.141791 -6.457069 -4.694547 -13.104442 12.019540 -3.777285 2.641482 -10.594316 0.000000 -0.000000 0.000000 1.411838 1.484761 8.179737 -1.541602 10.073408 14.225549 -2.299170 -0.127256 -27.929574 0.000000 -0.000000 0.000000 1.414811 1.898741 17.933015 1.538240 -2.443143 6.766765 1.079214 -0.591550 1.477221 -2.020067 8.091842 -4.878450 -0.137080 1.965876 1.491065 -26.057773 1.330533 2.592489 -56.266869 0.365615 10.790449 14.274672 -49.914711 4.875527 0.540663 -11.249244 -21.863793 21.929425 3.179746 4.735917 53.793235 2.827346 11.444082 -19.218090 46.144168 1.037752 6.670460 7.629462 -9.384829 
-0.179659 -1.897214 0.968511 168.008618 -0.757586 83.006349 4.932083 -3.110861 -6.433958 -4.724715 -13.128989 12.031506 -3.737534 2.650179 -10.587869 0.000000 -0.000000 0.000000 1.422789 1.501370 8.235896 -1.540568 10.211581 14.173073 -2.293485 -0.147578 -27.780187 0.000000 -0.000000 0.000000 1.401623 1.923029 17.864138 1.531816 -2.424394 6.821498 1.071221 -0.559685 1.428896 -2.039455 8.051256 -4.831179 -0.120267 1.996259 1.532125 -26.055241 1.249534 2.661637 -56.207989 0.295851 10.702759 14.396423 -49.812912 4.718981 0.564738 -11.205036 -21.812146 21.907898 3.211124 4.810883 53.763551 2.759528 11.328657 -19.278816 45.897453 1.017542 6.763874 7.542693 -9.336035 
-0.180135 -1.897475 0.968491 167.993586 -0.750764 82.962847 4.925962 -3.105657 -6.421134 -4.739631 -13.145795 12.045498 -3.693028 2.665765 -10.573101 0.000000 -0.000000 0.000000 1.391961 1.521905 8.296655 -1.517139 10.307612 14.123246 -2.259273 -0.156216 -27.623553 0.000000 -0.000000 0.000000 1.358113 1.947903 17.808263 1.516327 -2.448842 6.847490 1.062444 -0.538819 1.386196 -2.048321 8.036150 -4.770360 -0.100403 2.020110 1.587881 -26.016703 1.163338 2.737098 -56.139722 0.228387 10.621847 14.531578 -49.671396 4.548066 0.553611 -11.209979 -21.769102 21.879243 3.241900 4.867693 53.749363 2.695620 11.257068 -19.347944 45.721163 0.984462 6.876099 7.513645 -9.343969 
-0.180568 -1.897693 0.968508 167.990362 -0.731212 82.933634 4.918208 -3.104338 -6.413318 -4.732908 -13.163008 12.051163 -3.680784 2.676066 -10.561631 0.000000 -0.000000 0.000000 1.363964 1.485500 8.310991 -1.490011 10.282376 14.142114 -2.204105 -0.110877 -27.570021 0.000000 -0.000000 0.000000 1.333327 1.956388 17.807826 1.506936 -2.477864 6.790718 1.060328 -0.536565 1.367644 -2.052557 8.033849 -4.714400 -0.090979 2.019958 1.620421 -25.961096 1.116703 2.793016 -56.083270 0.208779 10.584675 14.565499 -49.604196 4.498958 0.548579 -11.202343 -21.752667 21.851954 3.252188 4.900538 53.754768 2.645629 11.237939 -19.373826 45.698624 0.968948 6.882395 7.545510 -9.378830 
-0.180966 -1.897875 0.968536 167.964644 -0.682351 82.906305 4.959583 -3.054486 -6.411660 -4.747373 -13.183344 12.067504 -3.670973 2.662037 -10.554247 0.000000 -0.000000 0.000000 1.382809 1.458219 8.343021 -1.492787 10.354667 14.093273 -2.205352 -0.082962 -27.454464 0.000000 -0.000000 0.000000 1.334408 1.952576 17.784835 1.502902 -2.491317 6.759728 1.051676 -0.536883 1.353843 -2.055323 7.994839 -4.638589 -0.086246 2.033181 1.641512 -25.940215 1.060138 2.855803 -56.000196 0.197052 10.533428 14.562116 -49.564644 4.467237 0.600100 -11.154293 -21.710352 21.825314 3.270230 4.943748 53.766342 2.641501 11.221122 -19.334087 45.757274 0.993686 6.831226 7.556034 -9.428720 
-0.181274 -1.898013 0.968528 167.904287 -0.633668 82.886395 5.020439 -2.979747 -6.405861 -4.773474 -13.182981 12.080504 -3.658458 2.637809 -10.554544 0.000000 -0.000000 0.000000 1.409811 1.446431 8.385114 -1.503374 10.423848 14.030936 -2.209095 -0.054257 -27.343432 0.000000 -0.000000 0.000000 1.319758 1.949033 17.731679 1.498722 -2.483165 6.758079 1.041791 -0.521847 1.342710 -2.059089 7.953601 -4.534262 -0.066158 2.024218 1.611835 -25.921790 1.008968 2.915357 -55.930094 0.180432 10.476403 14.572320 -49.527741 4.422393 0.605322 -11.132622 -21.671745 21.819212 3.280233 4.983428 53.778984 2.676781 11.203009 -19.241103 45.868304 1.101429 6.829223 7.545932 -9.473389 
